# xmcd CD database file generated by MAGIX-FreeDB-MP3_deluxe_MX v3.0beta1
#
# Track frame offsets:
#	150
#	23452
#	54717
#
# Disc length: 1094
#
# Revision: 15
# Processed by: cddbd v1.5.2PL0 Copyright (c) Steve Scherf et al.
# Submitted via: MAGIX-FreeDB-MP3_deluxe_MX v3.0beta1
#
DISCID=1a044403
DTITLE=Madonna - (Maxi) This Used To Be My Playground
DYEAR=1992
DGENRE=Pop
TTITLE0=This Used To Be My Playground [Single Version]
TTITLE1=This Used To Be My Playground [Instrumental]
TTITLE2=This Used To Be My Playground [Long Version]
EXTD=
EXTT0=
EXTT1=
EXTT2=
PLAYORDER=
